<svg viewBox="0 0 360 360" xmlns="http://www.w3.org/2000/svg">
  <defs>
    <linearGradient id="bz" x1="0" y1="0" x2="1" y2="1">
      <stop offset="0%" stop-color="#3730A3"/>
      <stop offset="22%" stop-color="#4F46E5"/>
      <stop offset="48%" stop-color="#818CF8"/>
      <stop offset="74%" stop-color="#4F46E5"/>
      <stop offset="100%" stop-color="#3730A3"/>
    </linearGradient>
    <linearGradient id="ga" x1="0" y1="0" x2="1" y2="1">
      <stop offset="0%" stop-color="#3730A3"/>
      <stop offset="50%" stop-color="#4F46E5"/>
      <stop offset="100%" stop-color="#818CF8"/>
    </linearGradient>
    <linearGradient id="tg" x1="0" y1="0" x2="0" y2="1">
      <stop offset="0%" stop-color="#A5B4FC"/>
      <stop offset="100%" stop-color="#4F46E5" stop-opacity="0.4"/>
    </linearGradient>
    <radialGradient id="sh" cx="0.38" cy="0.32">
      <stop offset="0%" stop-color="#FFFFFF"/>
      <stop offset="12%" stop-color="#F2ECE2"/>
      <stop offset="35%" stop-color="#C7D2FE"/>
      <stop offset="60%" stop-color="#818CF8"/>
      <stop offset="82%" stop-color="#4F46E5" stop-opacity="0.5"/>
      <stop offset="100%" stop-color="#4F46E5" stop-opacity="0"/>
    </radialGradient>
    <radialGradient id="sm" cx="0.38" cy="0.32">
      <stop offset="0%" stop-color="#FFFFFF" stop-opacity="0.95"/>
      <stop offset="18%" stop-color="#E0E7FF" stop-opacity="0.85"/>
      <stop offset="45%" stop-color="#A5B4FC" stop-opacity="0.6"/>
      <stop offset="75%" stop-color="#6366F1" stop-opacity="0.4"/>
      <stop offset="100%" stop-color="#4F46E5" stop-opacity="0"/>
    </radialGradient>
    <radialGradient id="ss" cx="0.38" cy="0.32">
      <stop offset="0%" stop-color="#FFFFFF" stop-opacity="0.9"/>
      <stop offset="22%" stop-color="#C7D2FE" stop-opacity="0.65"/>
      <stop offset="55%" stop-color="#818CF8" stop-opacity="0.4"/>
      <stop offset="100%" stop-color="#4F46E5" stop-opacity="0"/>
    </radialGradient>
    <radialGradient id="hl">
      <stop offset="0%" stop-color="#818CF8" stop-opacity="0.16"/>
      <stop offset="35%" stop-color="#6366F1" stop-opacity="0.06"/>
      <stop offset="100%" stop-color="#4F46E5" stop-opacity="0"/>
    </radialGradient>
    <radialGradient id="hb" cx="0.4" cy="0.36">
      <stop offset="0%" stop-color="#FFFFFF"/>
      <stop offset="15%" stop-color="#E0E7FF"/>
      <stop offset="35%" stop-color="#A5B4FC"/>
      <stop offset="55%" stop-color="#6366F1"/>
      <stop offset="75%" stop-color="#4F46E5"/>
      <stop offset="90%" stop-color="#3730A3"/>
      <stop offset="100%" stop-color="#312E81"/>
    </radialGradient>
    <linearGradient id="ec" x1="0" y1="0" x2="1" y2="1">
      <stop offset="0%" stop-color="#6366F1" stop-opacity="0.18"/>
      <stop offset="100%" stop-color="#818CF8" stop-opacity="0.08"/>
    </linearGradient>
    <linearGradient id="rf" x1="0" y1="1" x2="1" y2="0">
      <stop offset="0%" stop-color="#818CF8" stop-opacity="0.02"/>
      <stop offset="50%" stop-color="#818CF8" stop-opacity="0.06"/>
      <stop offset="100%" stop-color="#818CF8" stop-opacity="0.12"/>
    </linearGradient>
    <radialGradient id="ag">
      <stop offset="0%" stop-color="#4F46E5" stop-opacity="0.05"/>
      <stop offset="100%" stop-color="#0A0914" stop-opacity="0"/>
    </radialGradient>
  </defs>
  <g transform="translate(180, 180)">
    <circle r="155" fill="url(#ag)"/>
    <circle r="118" fill="none" stroke="#4F46E5" stroke-width="0.28" opacity="0.06"/>
    <circle r="90" fill="none" stroke="#4F46E5" stroke-width="0.25" opacity="0.05"/>
    <circle r="62" fill="none" stroke="#4F46E5" stroke-width="0.22" opacity="0.04"/>
    <circle r="36" fill="none" stroke="#4F46E5" stroke-width="0.2" opacity="0.03"/>
    <line x1="0" y1="-122" x2="0" y2="122" stroke="#4F46E5" stroke-width="0.15" opacity="0.025"/>
    <line x1="-122" y1="0" x2="122" y2="0" stroke="#4F46E5" stroke-width="0.15" opacity="0.025"/>
    <circle cx="15" cy="-18" r="94" fill="none" stroke="url(#ec)" stroke-width="0.7"/>
    <g fill="#6366F1">
      <circle cx="15" cy="-112" r="1.4" opacity="0.12"/><circle cx="78" cy="-96" r="1.4" opacity="0.1"/>
      <circle cx="105" cy="-48" r="1.3" opacity="0.09"/><circle cx="100" cy="22" r="1.3" opacity="0.08"/>
      <circle cx="70" cy="66" r="1.2" opacity="0.09"/><circle cx="15" cy="76" r="1.2" opacity="0.08"/>
      <circle cx="-36" cy="60" r="1.2" opacity="0.08"/><circle cx="-65" cy="18" r="1.2" opacity="0.07"/>
      <circle cx="-68" cy="-38" r="1.3" opacity="0.08"/><circle cx="-44" cy="-86" r="1.3" opacity="0.1"/>
    </g>
    <path d="M-86 -98 Q-58 -114, -24 -72" fill="none" stroke="#6366F1" stroke-width="0.4" opacity="0.08"/>
    <path d="M72 -106 Q92 -94, 95 -72" fill="none" stroke="#6366F1" stroke-width="0.4" opacity="0.07"/>
    <path d="M-86 -98 Q-104 -54, -74 -24" fill="none" stroke="#6366F1" stroke-width="0.3" opacity="0.06"/>
    <path d="M-88 106 Q-96 80, -90 68" fill="none" stroke="#6366F1" stroke-width="0.3" opacity="0.06"/>
    <circle r="150" fill="none" stroke="url(#bz)" stroke-width="5.5"/>
    <circle r="144" fill="none" stroke="#818CF8" stroke-width="0.5" opacity="0.12"/>
    <circle r="156" fill="none" stroke="#3730A3" stroke-width="0.4" opacity="0.2"/>
    <g stroke="url(#tg)" stroke-width="3.2" stroke-linecap="round">
      <line x1="0" y1="-150" x2="0" y2="-122"/><line x1="0" y1="150" x2="0" y2="122"/>
    </g>
    <g stroke="url(#bz)" stroke-width="3.2" stroke-linecap="round">
      <line x1="-150" y1="0" x2="-122" y2="0"/><line x1="150" y1="0" x2="122" y2="0"/>
    </g>
    <g stroke="#6366F1" stroke-width="2" stroke-linecap="round" opacity="0.55">
      <line x1="-106" y1="-106" x2="-88" y2="-88"/><line x1="106" y1="-106" x2="88" y2="-88"/>
      <line x1="-106" y1="106" x2="-88" y2="88"/><line x1="106" y1="106" x2="88" y2="88"/>
    </g>
    <g stroke="#4F46E5" stroke-width="1.3" stroke-linecap="round" opacity="0.42">
      <line x1="-38.8" y1="-145" x2="-33" y2="-126"/><line x1="38.8" y1="-145" x2="33" y2="-126"/>
      <line x1="-76" y1="-130" x2="-66" y2="-114"/><line x1="76" y1="-130" x2="66" y2="-114"/>
      <line x1="-145" y1="-38.8" x2="-126" y2="-33"/><line x1="145" y1="-38.8" x2="126" y2="-33"/>
      <line x1="-145" y1="38.8" x2="-126" y2="33"/><line x1="145" y1="38.8" x2="126" y2="33"/>
      <line x1="-130" y1="76" x2="-114" y2="66"/><line x1="130" y1="76" x2="114" y2="66"/>
      <line x1="-76" y1="130" x2="-66" y2="114"/><line x1="76" y1="130" x2="66" y2="114"/>
      <line x1="-38.8" y1="145" x2="-33" y2="126"/><line x1="38.8" y1="145" x2="33" y2="126"/>
    </g>
    <g stroke="#4F46E5" stroke-width="0.5" stroke-linecap="round" opacity="0.14">
      <line x1="-26" y1="-148" x2="-23" y2="-134"/><line x1="26" y1="-148" x2="23" y2="-134"/>
      <line x1="-52" y1="-141" x2="-46" y2="-125"/><line x1="52" y1="-141" x2="46" y2="-125"/>
      <line x1="-65" y1="-136" x2="-57" y2="-120"/><line x1="65" y1="-136" x2="57" y2="-120"/>
      <line x1="-90" y1="-120" x2="-80" y2="-106"/><line x1="90" y1="-120" x2="80" y2="-106"/>
      <line x1="-120" y1="-90" x2="-106" y2="-80"/><line x1="120" y1="-90" x2="106" y2="-80"/>
      <line x1="-136" y1="-65" x2="-120" y2="-57"/><line x1="136" y1="-65" x2="120" y2="-57"/>
      <line x1="-141" y1="-52" x2="-125" y2="-46"/><line x1="141" y1="-52" x2="125" y2="-46"/>
      <line x1="-148" y1="-26" x2="-134" y2="-23"/><line x1="148" y1="-26" x2="134" y2="-23"/>
      <line x1="-148" y1="26" x2="-134" y2="23"/><line x1="148" y1="26" x2="134" y2="23"/>
      <line x1="-141" y1="52" x2="-125" y2="46"/><line x1="141" y1="52" x2="125" y2="46"/>
      <line x1="-120" y1="90" x2="-106" y2="80"/><line x1="120" y1="90" x2="106" y2="80"/>
      <line x1="-90" y1="120" x2="-80" y2="106"/><line x1="90" y1="120" x2="80" y2="106"/>
      <line x1="-65" y1="136" x2="-57" y2="120"/><line x1="65" y1="136" x2="57" y2="120"/>
      <line x1="-52" y1="141" x2="-46" y2="125"/><line x1="52" y1="141" x2="46" y2="125"/>
      <line x1="-26" y1="148" x2="-23" y2="134"/><line x1="26" y1="148" x2="23" y2="134"/>
    </g>
    <path d="M0 -122 Q-24 -82, -78 -94" fill="none" stroke="url(#ga)" stroke-width="3.2" stroke-linecap="round"/>
    <path d="M0 -122 Q24 -88, 66 -102" fill="none" stroke="url(#ga)" stroke-width="2.4" stroke-linecap="round" opacity="0.75"/>
    <path d="M122 0 Q94 -26, 92 -68" fill="none" stroke="url(#ga)" stroke-width="1.8" stroke-linecap="round" opacity="0.6"/>
    <path d="M0 122 Q-36 94, -84 102" fill="none" stroke="url(#ga)" stroke-width="1.7" stroke-linecap="round" opacity="0.55"/>
    <path d="M-122 0 Q-92 24, -88 66" fill="none" stroke="url(#ga)" stroke-width="1.5" stroke-linecap="round" opacity="0.45"/>
    <path d="M122 0 Q100 34, 102 76" fill="none" stroke="url(#ga)" stroke-width="1.2" stroke-linecap="round" opacity="0.38"/>
    <path d="M0 -122 Q-10 -100, -22 -72" fill="none" stroke="#6366F1" stroke-width="0.9" stroke-linecap="round" opacity="0.25"/>
    <path d="M-122 0 Q-100 -14, -72 -22" fill="none" stroke="#6366F1" stroke-width="0.9" stroke-linecap="round" opacity="0.25"/>
    <circle cx="-30" cy="-90" r="2.2" fill="#6366F1" opacity="0.25"/>
    <circle cx="16" cy="-94" r="1.8" fill="#6366F1" opacity="0.2"/>
    <circle cx="-86" cy="-98" r="30" fill="url(#hl)"/>
    <circle cx="-86" cy="-98" r="15" fill="url(#sh)"/>
    <circle cx="72" cy="-106" r="12" fill="url(#sm)"/>
    <circle cx="95" cy="-72" r="10" fill="url(#sm)"/>
    <circle cx="-88" cy="106" r="10" fill="url(#ss)"/>
    <circle cx="-90" cy="68" r="8.5" fill="url(#ss)"/>
    <circle cx="104" cy="80" r="7.5" fill="url(#ss)"/>
    <circle cx="-24" cy="-70" r="6" fill="url(#ss)"/>
    <circle cx="-74" cy="-24" r="6" fill="url(#ss)"/>
    <line x1="-104" y1="92" x2="104" y2="-92" stroke="url(#rf)" stroke-width="1.4" stroke-linecap="round"/>
    <path d="M102 -90 L112 -100 L98 -92Z" fill="#818CF8" opacity="0.1"/>
    <circle cx="-100" cy="88" r="3.5" fill="none" stroke="#818CF8" stroke-width="0.5" opacity="0.06"/>
    <circle r="22" fill="none" stroke="url(#bz)" stroke-width="1.2" opacity="0.4"/>
    <circle r="18" fill="none" stroke="#818CF8" stroke-width="0.4" opacity="0.1"/>
    <circle r="16" fill="url(#hb)"/>
    <circle r="5.5" fill="#F2ECE2" opacity="0.88"/>
    <circle r="2.2" fill="#0A0914" opacity="0.3"/>
    <circle r="0.9" fill="#F2ECE2" opacity="0.5"/>
  </g>
</svg>
